<?xml version="1.0" encoding="UTF-8" standalone="no"?>
<!-- Generator: Adobe Illustrator 16.0.0, SVG Export Plug-In . SVG Version: 6.00 Build 0)  -->

<svg
   xmlns:dc="http://purl.org/dc/elements/1.1/"
   xmlns:cc="http://creativecommons.org/ns#"
   xmlns:rdf="http://www.w3.org/1999/02/22-rdf-syntax-ns#"
   xmlns:svg="http://www.w3.org/2000/svg"
   xmlns="http://www.w3.org/2000/svg"
   xmlns:sodipodi="http://sodipodi.sourceforge.net/DTD/sodipodi-0.dtd"
   xmlns:inkscape="http://www.inkscape.org/namespaces/inkscape"
   version="1.1"
   x="0px"
   y="0px"
   width="470.49899"
   height="159.286"
   viewBox="0 0 470.49897 159.28599"
   enable-background="new 0 0 595.28 841.89"
   xml:space="preserve"
   id="svg2"
   inkscape:version="0.48.4 r9939"
   sodipodi:docname="logo-crepan.svg"><metadata
     id="metadata58"><rdf:RDF><cc:Work
         rdf:about=""><dc:format>image/svg+xml</dc:format><dc:type
           rdf:resource="http://purl.org/dc/dcmitype/StillImage" /><dc:title /></cc:Work></rdf:RDF></metadata><defs
     id="defs56" /><sodipodi:namedview
     pagecolor="#ffffff"
     bordercolor="#666666"
     borderopacity="1"
     objecttolerance="10"
     gridtolerance="10"
     guidetolerance="10"
     inkscape:pageopacity="0"
     inkscape:pageshadow="2"
     inkscape:window-width="1215"
     inkscape:window-height="776"
     id="namedview54"
     showgrid="false"
     fit-margin-top="0"
     fit-margin-left="0"
     fit-margin-right="0"
     fit-margin-bottom="0"
     inkscape:zoom="2.2425732"
     inkscape:cx="199.58439"
     inkscape:cy="83.7935"
     inkscape:window-x="65"
     inkscape:window-y="24"
     inkscape:window-maximized="1"
     inkscape:current-layer="svg2" /><g
     id="Calque_1"
     display="none"
     style="display:none"
     transform="translate(-66.106012,-280.884)" /><g
     id="g12"
     transform="translate(-66.106012,-280.884)"><g
       id="g14"><path
         style="fill:#3c3c3b"
         inkscape:connector-curvature="0"
         id="path16"
         d="m 100.698,317.372 c 0,0 3.482,30.297 -9.052,53.109 0,0 -1.263,2.259 -3.612,4.568 -2.353,2.306 -3.442,4.741 -2.57,5.88 0.872,1.13 3.265,0.429 5.052,-2.008 1.781,-2.436 5.458,-7.484 8.616,-20.764 3.396,-14.274 3.396,-36.652 1.566,-40.785 z" /><path
         style="fill:#3c3c3b"
         inkscape:connector-curvature="0"
         id="path18"
         d="m 104.663,304.921 c 0,0 10.711,54.456 -7.966,81.227 0,0 -1.785,3.135 -3.701,5.053 -1.915,1.914 -6.79,6.092 -4.96,8.704 0,0 2.262,2.697 5.921,-1.483 0,0 6.703,-5.223 11.316,-25.683 -10e-4,0 9.447,-26.945 -0.61,-67.818 z" /><path
         style="fill:#3c3c3b"
         inkscape:connector-curvature="0"
         id="path20"
         d="m 131.143,317.372 c 0,0 -3.481,30.297 9.057,53.109 0,0 1.261,2.259 3.609,4.568 2.354,2.306 3.44,4.741 2.568,5.88 -0.867,1.13 -3.261,0.429 -5.047,-2.008 -1.783,-2.436 -5.46,-7.484 -8.619,-20.764 -3.395,-14.274 -3.395,-36.652 -1.568,-40.785 z" /><path
         style="fill:#3c3c3b"
         inkscape:connector-curvature="0"
         id="path22"
         d="m 127.18,304.921 c 0,0 -10.706,54.456 7.966,81.227 0,0 1.783,3.135 3.702,5.053 1.912,1.914 6.787,6.092 4.96,8.704 0,0 -2.264,2.697 -5.922,-1.483 0,0 -6.7,-5.223 -11.316,-25.683 0,0 -9.448,-26.945 0.61,-67.818 z" /><path
         style="fill:#3c3c3b"
         inkscape:connector-curvature="0"
         id="path24"
         d="m 119.721,416.971 c 0,-5.14 -0.96,-4.354 -1.22,-14.803 -0.236,-9.415 -2.169,-90.503 -2.549,-106.389 v -2.7 c 0,0 -0.009,0.475 -0.028,1.35 -0.025,-0.875 -0.036,-1.35 -0.036,-1.35 v 2.7 c -0.378,15.885 -2.312,96.974 -2.546,106.389 -0.261,10.448 -1.218,9.663 -1.218,14.803 0,4.754 3.277,4.654 3.764,4.698 l 0,0 c 0,0 0.019,0 0.036,0 0.013,0 0.028,0 0.028,0 l 0,0 c 0.489,-0.044 3.769,0.056 3.769,-4.698 z" /><path
         style="fill:#3c3c3b"
         inkscape:connector-curvature="0"
         id="path26"
         d="m 116.148,427.968 c 4.197,-0.396 36.186,-5.271 36.186,-45.807 0,-20.919 -4.742,-34.325 -16.41,-54.85 10.353,18.206 14.554,35.352 14.554,55.806 0,28.187 -20.776,41.378 -34.02,41.767 h -0.31 -0.453 -0.309 c -13.24,-0.389 -34.02,-13.58 -34.02,-41.767 0,-20.454 4.202,-37.6 14.554,-55.806 -11.667,20.524 -16.413,33.931 -16.413,54.85 0,40.535 31.99,45.41 36.187,45.807 10e-4,0 0.264,0.019 0.454,0 z" /></g></g><g
     id="g28"
     transform="translate(-66.106012,-280.884)"><path
       style="fill:#3c3c3b"
       inkscape:connector-curvature="0"
       id="path30"
       d="m 177.542,336.144 c 6.413,-4.997 14.804,-7.445 23.197,-7.445 5.848,0 10.092,0.565 12.45,1.412 0.562,6.318 1.035,12.729 1.412,19.237 -3.113,0.472 -6.508,0.946 -9.901,1.315 l -2.262,-9.896 c -0.096,-0.378 -0.188,-0.943 -0.566,-1.136 -1.038,-0.654 -2.453,-1.22 -4.432,-1.22 -3.018,0 -6.32,1.22 -8.959,3.957 -4.149,4.338 -6.413,10.561 -6.413,18.486 0,8.105 1.696,13.387 5.47,16.782 2.83,2.641 7.262,3.866 11.034,3.866 4.242,0 11.502,-1.415 14.618,-2.638 0.754,2.731 1.317,6.223 1.696,8.771 -6.038,2.354 -14.804,4.238 -19.616,4.238 -7.26,0 -14.617,-1.601 -20.084,-5.561 -5.942,-4.339 -10.655,-12.45 -10.655,-22.35 0,-13.392 6.034,-22.348 13.011,-27.818 z" /><path
       style="fill:#3c3c3b"
       inkscape:connector-curvature="0"
       id="path32"
       d="m 222.994,337.751 c 0,-2.737 0,-5.375 0.098,-8.019 6.41,-0.093 14.426,-0.187 21.782,-0.187 5.372,0 8.295,0 13.861,1.319 8.204,1.791 13.482,9.148 13.482,15.182 0,8.016 -5.091,13.676 -11.691,16.413 v 0.562 c 4.149,1.979 6.413,7.354 10.655,16.124 1.037,2.358 1.699,3.299 2.831,3.396 l 4.526,0.564 c 0,2.545 -0.093,5.188 -0.093,7.826 -1.698,0 -5.094,0.097 -6.885,0.097 -2.075,0 -10.09,0.093 -11.881,0.093 -2.452,-4.245 -6.98,-15.184 -8.864,-19.612 -1.226,-2.923 -2.925,-4.056 -5.093,-4.056 -1.131,0 -1.885,0.093 -2.169,0.188 l -0.093,15.182 5.093,0.282 c -0.095,2.641 -0.095,5.188 -0.095,7.826 -3.679,0 -8.865,0 -13.487,0 -3.958,0 -8.395,0 -11.976,0 0.098,-2.638 0.098,-5.186 0.098,-7.826 l 4.618,-0.282 c 0.188,0 0.284,-0.187 0.284,-0.282 l 0.093,-44.604 -5.094,-0.186 z m 20.558,21.971 c 0.377,0.09 0.943,0.09 2.262,0.09 6.32,0 10.185,-4.432 10.185,-10.653 0,-6.883 -4.244,-11.976 -9.24,-11.976 -1.603,0 -2.453,0.093 -3.016,0.282 l -0.191,22.257 z" /><path
       style="fill:#3c3c3b"
       inkscape:connector-curvature="0"
       id="path34"
       d="m 289.38,382.729 c 0.283,0 0.475,-0.189 0.475,-0.376 v -44.417 l -5.471,-0.186 c 0,-2.737 0.095,-5.564 0.188,-8.112 3.488,0 8.394,0 12.354,0 2.925,0 19.803,0 22.066,0 3.961,0 7.26,-0.093 9.334,-0.093 0.379,5.567 0.754,11.221 0.941,16.786 -2.733,0.375 -6.033,0.754 -9.236,1.033 l -1.513,-7.262 c -0.188,-0.847 -0.563,-1.412 -1.884,-1.601 -1.322,-0.187 -4.056,-0.565 -9.902,-0.565 -0.285,0 -0.662,0 -0.943,0 l -0.094,17.918 c 2.924,0 5.658,-0.096 8.299,-0.188 0.564,-0.094 1.035,-0.755 1.227,-1.797 l 0.564,-3.575 c 3.018,0 6.127,0.087 8.863,0.187 0,2.923 -0.094,6.411 -0.094,9.806 0,3.396 -0.096,6.79 -0.096,9.242 -2.734,0.186 -5.846,0.282 -8.862,0.282 l -0.472,-3.774 c -0.096,-1.411 -0.566,-1.979 -1.415,-1.979 -2.638,-0.093 -5.28,-0.189 -8.015,-0.189 l -0.094,16.696 c 0,1.79 0.659,2.072 4.902,2.072 3.863,0 6.226,-0.282 7.543,-0.564 0.945,-0.282 1.415,-0.758 1.792,-1.794 l 2.733,-7.544 c 3.209,0.472 6.508,1.13 9.245,1.694 -1.038,5.475 -2.265,11.035 -3.491,16.6 -4.715,0 -17.822,-0.097 -30.93,-0.097 -4.336,0 -9.146,0.097 -12.917,0.097 0,-2.642 0,-5.472 0.093,-8.016 l 4.81,-0.284 z" /><path
       style="fill:#3c3c3b"
       inkscape:connector-curvature="0"
       id="path36"
       d="m 339.455,337.751 c 0,-2.548 0.096,-5.475 0.096,-8.019 6.787,-0.093 15.088,-0.187 22.914,-0.187 4.244,0 8.58,0 13.766,1.602 7.734,2.455 12.731,10.185 12.731,18.201 0,7.357 -4.904,14.334 -11.126,17.446 -4.339,2.259 -10.941,3.017 -13.205,3.017 -1.223,0 -3.77,0 -4.432,-0.097 l -0.093,13.108 8.581,0.282 c 0,2.451 0,5.375 -0.096,7.826 -4.713,0 -11.219,0 -16.971,0 -3.96,0 -8.393,0 -11.977,0 0,-2.451 0,-5.375 0.092,-7.826 l 4.436,-0.282 c 0.279,0 0.375,-0.187 0.375,-0.379 v -44.507 l -5.091,-0.185 z m 20.744,23.103 c 0,0.844 1.698,0.943 3.303,0.943 2.356,0 4.715,-0.854 6.412,-2.548 1.982,-1.887 3.113,-5.282 3.113,-9.431 0,-6.979 -4.247,-12.637 -9.619,-12.637 -1.413,0 -2.643,0.093 -3.018,0.282 l -0.191,23.391 z" /><path
       style="fill:#3c3c3b"
       inkscape:connector-curvature="0"
       id="path38"
       d="m 390.661,382.729 c 0.191,0 0.474,-0.189 0.562,-0.476 5.757,-15.271 14.057,-37.623 19.712,-52.991 1.699,-0.189 6.036,-0.189 12.921,-0.189 5.469,15.842 12.92,38.378 18.105,53.562 l 4.807,0.376 c 0,2.544 0,5.281 -0.094,7.919 -3.108,0 -7.732,0 -11.314,0 -4.903,0 -10.847,0 -15.182,0 0,-2.638 0,-5.375 0.093,-8.013 l 4.619,-0.282 c 0.188,0 0.379,-0.192 0.284,-0.475 -0.472,-1.412 -1.318,-4.432 -1.887,-5.847 -0.095,-0.378 -0.28,-0.472 -0.658,-0.472 l -17.444,0.189 c -0.472,2.073 -1.225,4.717 -1.604,6.697 l 5.188,0.282 c 0,2.544 0,5.281 -0.097,7.919 -3.771,0 -8.674,0 -13.296,0 -3.111,0 -6.41,0 -9.24,0 0,-2.638 0.092,-5.375 0.189,-7.919 l 4.336,-0.28 z m 23.388,-36.116 c -2.172,6.977 -4.435,14.424 -6.413,20.839 -0.095,0.375 -0.095,0.564 0.187,0.564 h 13.203 c -1.98,-6.219 -4.244,-13.955 -6.508,-21.403 h -0.469 z" /><path
       style="fill:#3c3c3b"
       inkscape:connector-curvature="0"
       id="path40"
       d="m 456.672,382.636 c 0.188,0 0.281,-0.096 0.281,-0.382 l -0.094,-44.413 -5.469,-0.187 c 0,-2.641 0,-5.468 0.095,-8.016 5.276,0 12.635,0 18.101,0 7.167,10.278 18.956,28.382 26.972,40.926 h 0.566 c -0.188,-10.753 -0.188,-21.785 -0.282,-32.724 l -6.885,-0.187 c 0,-2.542 0.097,-5.561 0.187,-8.016 3.679,0 8.112,0 12.261,0 3.301,0 7.169,-0.093 9.996,-0.093 0,2.548 0,5.372 -0.095,8.012 l -4.149,0.283 c -0.19,0 -0.379,0.096 -0.379,0.475 L 507.4,389.99 c -1.978,0.851 -6.693,1.791 -11.505,1.791 -6.221,-7.451 -16.782,-21.124 -27.628,-37.342 l -0.658,0.094 c 0,9.616 -0.096,18.765 -0.188,28.103 l 6.976,0.187 c 0,2.641 0,5.563 -0.093,8.108 -3.961,0 -9.054,0 -13.488,0 -3.107,0 -6.316,0.097 -8.953,0.097 0,-2.642 0,-5.472 0.092,-8.109 l 4.717,-0.283 z" /></g></svg>